/* XPM */
static char * iqnotes_xpm[] = {
"32 32 167 2",
"  	c None",
". 	c #020205",
"+ 	c #744E00",
"@ 	c #00000A",
"# 	c #382A01",
"$ 	c #936314",
"% 	c #0F0100",
"& 	c #7D7D7D",
"* 	c #828282",
"= 	c #434343",
"- 	c #00000D",
"; 	c #43280F",
"> 	c #6D4F09",
", 	c #FFFFFF",
"' 	c #674100",
") 	c #00011E",
"! 	c #281700",
"~ 	c #BA790A",
"{ 	c #FFC051",
"] 	c #FFEBC1",
"^ 	c #251534",
"/ 	c #7C7C7C",
"( 	c #F7FCFF",
"_ 	c #3E4245",
": 	c #010011",
"< 	c #332015",
"[ 	c #FFD386",
"} 	c #FECA61",
"| 	c #FFD271",
"1 	c #FEDC97",
"2 	c #FFFFF8",
"3 	c #FFFFF9",
"4 	c #FFE9BB",
"5 	c #FEF095",
"6 	c #764404",
"7 	c #A8DDFF",
"8 	c #3B8EC4",
"9 	c #3E3F40",
"0 	c #935D03",
"a 	c #FFCC74",
"b 	c #FFE8BD",
"c 	c #FFEDD3",
"d 	c #FEF0D7",
"e 	c #FFE0AA",
"f 	c #FFD58F",
"g 	c #FFC76C",
"h 	c #FFB23C",
"i 	c #C78D32",
"j 	c #B1730E",
"k 	c #2D290E",
"l 	c #00050B",
"m 	c #C6E9FF",
"n 	c #B5E2FF",
"o 	c #424242",
"p 	c #714A0E",
"q 	c #9C7233",
"r 	c #FFF9E5",
"s 	c #FFE6BD",
"t 	c #FFE2AD",
"u 	c #FED998",
"v 	c #FFC96E",
"w 	c #DC982C",
"x 	c #D18F23",
"y 	c #D1922C",
"z 	c #DFBA68",
"A 	c #FCECCF",
"B 	c #FED68B",
"C 	c #090900",
"D 	c #99BFD8",
"E 	c #98D6FF",
"F 	c #9BD7FF",
"G 	c #65C3FF",
"H 	c #414141",
"I 	c #201308",
"J 	c #B57505",
"K 	c #FFFFFC",
"L 	c #FFD48F",
"M 	c #FEC35A",
"N 	c #E0951B",
"O 	c #D68816",
"P 	c #DAA248",
"Q 	c #E3C88B",
"R 	c #FFF1D9",
"S 	c #FFF0CD",
"T 	c #F6AC2C",
"U 	c #764D0A",
"V 	c #010104",
"W 	c #A3C2D8",
"X 	c #C4E7FF",
"Y 	c #AEDFFF",
"Z 	c #010007",
"` 	c #935E07",
" .	c #F3DEB9",
"..	c #FEBA55",
"+.	c #C17E07",
"@.	c #E4C17B",
"#.	c #F4E8CE",
"$.	c #FFF6E6",
"%.	c #FFEBBF",
"&.	c #FFCB6E",
"*.	c #FBAA20",
"=.	c #986206",
"-.	c #00000B",
";.	c #3178A6",
">.	c #BCE4FF",
",.	c #472A0B",
"'.	c #D89A2D",
").	c #FFAC33",
"!.	c #AD7917",
"~.	c #FEFDFA",
"{.	c #FFF5E6",
"].	c #FFE7B1",
"^.	c #FFBB3D",
"/.	c #CC8200",
"(.	c #412903",
"_.	c #241500",
":.	c #474848",
"<.	c #A2C3D8",
"[.	c #21110C",
"}.	c #C0800B",
"|.	c #CC830E",
"1.	c #ECBA5D",
"2.	c #FFEFCB",
"3.	c #FEC457",
"4.	c #F49E00",
"5.	c #543400",
"6.	c #180C00",
"7.	c #010105",
"8.	c #010205",
"9.	c #D5EFFF",
"0.	c #464646",
"a.	c #A4C3D8",
"b.	c #06020B",
"c.	c #87550D",
"d.	c #C68101",
"e.	c #FFD068",
"f.	c #FEB226",
"g.	c #6F4400",
"h.	c #000008",
"i.	c #DBF1FF",
"j.	c #C1E6FF",
"k.	c #414142",
"l.	c #363737",
"m.	c #3F3F3F",
"n.	c #120614",
"o.	c #DB8D00",
"p.	c #CA8100",
"q.	c #E7F6FF",
"r.	c #404040",
"s.	c #0C0414",
"t.	c #2A1A05",
"u.	c #F3FAFF",
"v.	c #CBEAFF",
"w.	c #C0E7FF",
"x.	c #616161",
"y.	c #404142",
"z.	c #010103",
"A.	c #7E8081",
"B.	c #5C5C5D",
"C.	c #17171A",
"D.	c #303031",
"E.	c #7E7E7F",
"F.	c #7E7F7F",
"G.	c #7A7A7B",
"H.	c #7B7D7E",
"I.	c #7F7F7F",
"J.	c #7B7B7B",
"                                                                ",
"      . +       @ . # $ %                 & * * * * =           ",
"- ; > , , ' ) ! ~ { ] , ^                 / ( ( ( ( = _         ",
": < , [ } | 1 2 , 3 4 5 6                 / 7 8 8 7 = 8 9       ",
"  0 a a b c d e f g h i j k l             / m ( ( n = = = o     ",
"  p q r s t u v w x y z A B C         & * * * * = D E F G H     ",
"  I J K L M N O P Q R S T U V         / ( ( ( ( = _ W X Y H     ",
"  Z `  ...+.@.#.$.%.&.*.=.-.          / 7 8 8 7 = 8 9 ;.>.H     ",
"    ,.'.).!.~.{.].^./.(._.            / m ( ( n = = = :.<.H     ",
"    [.}.|.1.2.3.4.5.6.7.8.8.7.. . . . / 9.8 8 n E F G 0.a.H     ",
"    b.c.d.e.f.g.h.V 7.                / i.( ( j.j.X Y k.l.m.    ",
"      n.o.p.. . h.8.7.                / q.8 8 8 8 8 >.r.        ",
"      s.t.@ -.    . 8.                / u.v.v.v.v.v.w.H         ",
"        .         . .                 / w.w.w.w.w.w.( H         ",
"                  . .                 x.y.y.y.y.y.y.y.m.        ",
"                  . .                         V                 ",
"                  . .                         z.                ",
"                  . .                         .                 ",
"    & * * * * =   . .                         .                 ",
"    / ( ( ( ( = _ z..                   & * * * * =             ",
"    / 7 8 8 A.* * B.C.D.                / ( ( ( ( = _           ",
"    / m ( ( E.( ( ( ( = _               / 7 8 8 7 = 8 9         ",
"    / 9.8 8 E.7 8 8 7 = 8 9             / m ( ( n = = = o       ",
"    / i.( ( F.m ( ( n = = = o           G.i.8 8 n E F G H       ",
"    / q.8 8 H.9.8 8 n E F G H           / i.( ( j.j.X Y H       ",
"    / u.v.v.F.i.( ( j.j.X Y H           / q.8 8 8 8 8 >.H       ",
"    / w.w.w.I.q.8 8 8 8 8 >.H           / u.v.v.v.v.v.w.H       ",
"    x.y.y.y.J.w.v.v.v.v.v.w.H           / w.w.w.w.w.w.( H       ",
"            J.w.w.w.w.w.w.( H           x.y.y.y.y.y.y.y.m.      ",
"            x.y.y.y.y.y.y.y.m.                                  ",
"                                                                ",
"                                                                "};
